PathFileType	4	(X/Y/Z)	Patient4_TMGait_0pt4_03_left_41.trc.trc
DataRate	CameraRate	NumFrames	NumMarkers	Units	OrigDataRate	OrigDataStartFrame	OrigNumFrames
74.468085106383	74.468085106383	4	33	mm	74.468085106383	106	       141
Frame#	Time	Sacral			L.Shoulder			Chest			R.Shoulder			Neck			R.ASIS			L.ASIS			R.Thigh.Superior			R.Thigh.Lateral			R.Thigh.Inferior			R.Patella			L.Thigh.Superior			L.Thigh.Lateral			L.Thigh.Inferior			L.Patella			L.Shank.Superior			L.Shank.Lateral			L.Shank.Inferior			R.Shank.Superior			R.Shank.Lateral			R.Shank.Inferior			R.Heel			R.Midfoot.Superior			R.Midfoot.Lateral			R.Toe			L.Heel			L.Midfoot.Lateral			L.Midfoot.Superior			L.Toe			L.Elbow			L.Wrist			R.Elbow			R.Wrist			
		X1	Y1	Z1	X2	Y2	Z2	X3	Y3	Z3	X4	Y4	Z4	X5	Y5	Z5	X6	Y6	Z6	X7	Y7	Z7	X8	Y8	Z8	X9	Y9	Z9	X10	Y10	Z10	X11	Y11	Z11	X12	Y12	Z12	X13	Y13	Z13	X14	Y14	Z14	X15	Y15	Z15	X16	Y16	Z16	X17	Y17	Z17	X18	Y18	Z18	X19	Y19	Z19	X20	Y20	Z20	X21	Y21	Z21	X22	Y22	Z22	X23	Y23	Z23	X24	Y24	Z24	X25	Y25	Z25	X26	Y26	Z26	X27	Y27	Z27	X28	Y28	Z28	X29	Y29	Z29	X30	Y30	Z30	X31	Y31	Z31	X32	Y32	Z32	X33	Y33	Z33	

106	55.710000000000	960.919087838416	1004.838523450274	529.380079782336	1107.031530654231	1436.213908453318	330.796032358750	1234.542480975695	1369.004080548319	473.901468720346	1178.654200047374	1439.797562675637	659.782967002923	1111.972537977870	1497.415675539880	486.684000880207	1203.939506039672	942.155440142624	612.710190698932	1151.859661381461	969.534196171409	344.325621098492	1230.785690471869	737.537868139128	578.609517726611	1150.874956450428	631.115988698181	647.953968104153	1217.420147380461	576.239173410930	561.563051222209	1213.127416676887	488.220352630346	568.149409213809	1243.104175398660	790.160037924848	360.178451853743	1196.611159327285	661.745649538850	284.542262755847	1308.227258600610	605.787707857286	333.880515311675	1328.365161178245	523.978919014168	322.615982458309	1280.243407284726	450.315088846152	316.816691323803	1155.344876552465	366.213173945897	282.266807734978	1195.325673213790	237.524088590264	325.690968958260	1180.244139328789	400.143036273974	577.375902739680	1107.126801069677	299.997816905579	642.477415546408	1139.499457898528	203.350484749633	576.770124116590	997.936799094364	42.935837786766	552.043372259021	1168.764313294592	96.481858537059	585.081309009559	1081.870605287568	37.357603334845	626.287610489812	1289.930373479197	44.542355812946	612.469091692240	1047.782070398728	111.340922851893	382.437032789866	1102.891692428196	90.881462607122	291.277506778123	1201.435879182987	132.595927285703	299.948603894472	1304.984362884413	54.963791210437	250.425573161628	1037.672151837366	1083.849040247100	233.854706130786	1083.153146369175	828.317014914572	203.893307766383	1245.643443604409	1111.038442104314	800.304283722075	1488.366139840714	1075.096581622134	732.701484239440	
107	55.723428571429	960.097118841774	1005.262245074659	531.196361431471	1105.727222602816	1435.997420730219	331.229778368179	1234.427670027894	1368.497761874532	473.166418395834	1180.605972384992	1439.779621746271	659.500389991591	1112.333577193612	1497.218118437413	487.075392098335	1203.452887349818	941.727913901289	612.376855227366	1149.320779754839	969.541208690277	344.344306507771	1228.422881474791	736.858856906883	577.914222021898	1148.490681953525	630.857705645064	648.147840380910	1213.771294265043	575.647557674446	561.222802991677	1208.944356531578	487.803425119523	568.020280174870	1240.273772850331	790.413443620923	360.415335460207	1194.090349218259	662.002837405091	284.729852129191	1305.285156366314	606.219529026609	335.041620687029	1326.733737361683	526.265700167042	323.366681366575	1282.326051365678	452.122499886945	316.857162062122	1163.164369985236	360.746705652592	281.386288191402	1211.306833874471	234.234776909551	323.937085134027	1175.806469686686	399.696560018188	577.387724017713	1102.578863929288	299.751728935655	642.689040162779	1134.433114529116	203.109397087246	576.848124479388	992.501745403930	42.869469505331	552.163934170396	1163.319185790791	96.459292491384	585.110350707299	1076.434500825578	37.319414971406	626.377828812441	1284.482225963952	44.598587724095	612.477784618418	1072.443374535538	98.041402789882	379.979296838717	1128.571856375338	82.081401143134	288.520421835965	1224.249176826490	130.023186274069	297.318486725601	1332.589152126571	59.770049242102	247.006934041414	1031.348523765960	1084.263448464015	236.323738546594	1069.748270445688	827.636547100066	207.539413671165	1253.666196947952	1112.656526262813	799.077008418117	1495.992348367362	1093.350540152113	726.481750450340	
108	55.736857142857	959.238039805424	1005.640217141125	532.762191042353	1104.597766218268	1435.732312114250	331.464773297698	1234.383194932509	1367.873911601524	472.276886887208	1182.544793680818	1439.615900300405	659.026238690296	1112.800991337848	1496.928714585391	487.319012386667	1202.928612811271	941.256412227620	611.916980267357	1146.891463740904	969.381678331237	344.186128406140	1226.129530070813	736.157309281611	577.232615998515	1146.175626399032	630.558247102432	648.294565294205	1210.211410303419	575.038864866736	560.854426180635	1204.854768561303	487.361945905984	567.875557719907	1237.177777480075	790.204033430444	360.706225664150	1191.205395590968	661.900978784631	284.848463849050	1301.800667181159	606.109121490942	336.359700380618	1324.542784435385	528.167790952145	324.356272303245	1283.909067194985	453.752839556443	317.105864173087	1171.056808475689	355.461221803673	280.208226077252	1226.939747791238	231.619948327718	322.301969069049	1171.463317819191	399.224176529083	577.390702630360	1098.096341466774	299.493405251248	642.900275726154	1129.389762456700	202.849964191077	576.917603287018	987.060253408345	42.804804571701	552.278157854352	1157.864384993869	96.424379816281	585.126432929533	1070.996845702434	37.280520040845	626.468500418607	1279.038224852701	44.646280809052	612.487150264540	1096.979466882345	86.154311240921	377.082537803456	1154.329426176549	74.519495470151	285.680644395122	1246.784454498482	128.385859332624	295.002778654639	1359.602275877801	65.487013555216	244.650232769834	1025.031199252132	1084.748845062344	238.676185330175	1057.086087300434	827.284472789906	211.161146227820	1261.681014525433	1114.172392180134	797.448244626463	1502.471046720735	1111.189450961090	720.140320983383	
109	55.750285714286	958.370180081822	1005.972157434007	534.071635814231	1103.634725329617	1435.428897106958	331.492616863407	1234.395902399689	1367.162522615521	471.237757911261	1184.433186437864	1439.335911080414	658.359508859618	1113.337188088254	1496.571696042184	487.379661154663	1202.386279089277	940.756938490999	611.343293169294	1144.607471693524	969.084047763795	343.860143089527	1223.933465082247	735.438405937543	576.579661121420	1143.936014297894	630.222930996318	648.386582135718	1206.766334545965	574.412137432014	560.461811750362	1200.881361127456	486.892111309114	567.709119851037	1233.895343068122	789.592547360856	361.038279629092	1188.055738681807	661.494916716501	284.885753675226	1297.926076810040	605.538687731643	337.733840891822	1321.918386904253	529.714303301719	325.532653810703	1285.046084777736	455.230667190519	317.543658326410	1178.907177346285	350.539312826909	278.773896077317	1241.926342500498	229.767845615526	320.859455899529	1167.228166177863	398.733614591212	577.377346500674	1093.687793158399	299.232737166399	643.110516908785	1124.378353453224	202.575162480609	576.975410201262	981.615588769906	42.747404442483	552.386356018318	1152.405134031701	96.377432020809	585.132374990052	1065.560294810841	37.243224634306	626.560193368140	1273.600347834524	44.678078978189	612.497407769788	1120.823167960300	75.957267975879	373.860182935251	1179.647486601642	68.334271859170	282.908756212822	1268.624096159906	127.708937377454	293.127992397352	1385.570224882692	71.945178187012	243.581659731151	1018.771704974049	1085.303701018620	240.913588066868	1045.196775007446	827.202692060448	214.712091061048	1269.649885312084	1115.608811054179	795.414682431921	1507.882201178505	1128.431790847805	713.740126795597	
